<svg xmlns="http://www.w3.org/2000/svg" aria-hidden="true" style="position:absolute;width:0;height:0;overflow:hidden">
  <defs>

    <symbol id="icon-hourglass" viewBox="0 0 32 32">
      <path fill="none" stroke="#fafafa" stroke-linecap="round" stroke-linejoin="round" stroke-width="2.667" d="M24.217 2.667H7.783c-.617 0-1.117.5-1.117 1.117a13.4 13.4 0 0 0 3.925 9.475l1.626 1.626c.161.161.242.242.3.32a1.335 1.335 0 0 1 0 1.594c-.058.077-.139.158-.3.32l-1.626 1.626a13.4 13.4 0 0 0-3.925 9.475c0 .617.5 1.117 1.117 1.117h16.434c.617 0 1.117-.5 1.117-1.117a13.4 13.4 0 0 0-3.925-9.475l-1.626-1.626c-.161-.161-.242-.242-.3-.32a1.332 1.332 0 0 1 0-1.594c.058-.077.139-.158.3-.32l1.626-1.626a13.4 13.4 0 0 0 3.925-9.475c0-.617-.5-1.117-1.117-1.117z" style="stroke:var(--color1, #fafafa)"/>
    </symbol>
    <symbol id="icon-brush" viewBox="0 0 32 32">
      <path fill="none" stroke="#fafafa" stroke-linecap="round" stroke-linejoin="round" stroke-width="2.667" d="M17.037 20 12 14.963M2.667 29.333c2.667 0 6.144.456 7.966-1.367a4.668 4.668 0 0 0-6.6-6.6c-1.823 1.823 0 5.3-1.367 7.966z" style="stroke:var(--color1, #fafafa)"/>
      <path fill="none" stroke="#fafafa" stroke-linecap="round" stroke-linejoin="round" stroke-width="2.667" d="M10.667 21.333c-.655-.655-.983-.983-1.168-1.326a2.668 2.668 0 0 1 .05-2.623c.198-.336.538-.651 1.218-1.28L23.924 3.921a2.94 2.94 0 0 1 4.153 4.153L15.894 21.231c-.63.68-.944 1.02-1.28 1.218-.805.475-1.8.495-2.623.051-.343-.185-.671-.513-1.326-1.168z" style="stroke:var(--color1, #fafafa)"/>
    </symbol>
    <symbol id="icon-message-chat-circle" viewBox="0 0 32 32">
      <path fill="none" stroke="#fafafa" stroke-linecap="round" stroke-linejoin="round" stroke-width="2.667" d="M8.126 14.972A10.66 10.66 0 0 1 8 13.334C8 7.443 12.807 2.667 18.737 2.667s10.737 4.776 10.737 10.667c0 1.331-.245 2.605-.693 3.779-.093.244-.14.366-.161.461s-.029.161-.031.257c-.002.097.011.205.037.42l.537 4.36c.058.472.087.708.009.88a.667.667 0 0 1-.343.335c-.173.075-.409.04-.879-.029l-4.247-.623a2.965 2.965 0 0 0-.434-.048c-.1.001-.169.008-.267.028s-.225.068-.477.163a10.78 10.78 0 0 1-3.787.683c-.558 0-1.105-.042-1.64-.124m-6.923 5.457c3.953 0 7.158-3.283 7.158-7.333s-3.205-7.333-7.158-7.333c-3.953 0-7.158 3.283-7.158 7.333 0 .814.13 1.597.369 2.329.101.309.152.464.168.57.017.11.02.172.014.284-.006.107-.033.227-.086.469l-.815 3.682 3.993-.545c.218-.03.327-.045.422-.044.1.001.153.006.252.026.093.019.232.067.51.165a6.994 6.994 0 0 0 2.332.398z" style="stroke:var(--color1, #fafafa)"/>
    </symbol>
    <symbol id="icon-user" viewBox="0 0 32 32">
      <path fill="none" stroke="#fafafa" stroke-linecap="round" stroke-linejoin="round" stroke-width="2.667" d="M26.667 28c0-1.861 0-2.791-.23-3.548a5.333 5.333 0 0 0-3.556-3.556c-.757-.23-1.687-.23-3.548-.23h-6.667c-1.861 0-2.791 0-3.548.23a5.335 5.335 0 0 0-3.556 3.556c-.23.757-.23 1.687-.23 3.548M16 16a6 6 0 1 0 0-12 6 6 0 0 0 0 12z" style="stroke:var(--color1, #fafafa)"/>
    </symbol>
    <symbol id="icon-menu-05" viewBox="0 0 32 32">
      <path stroke-linecap="round" stroke-linejoin="round" stroke-width="2.286" d="M4 11.333h24M4 20.667h24"/>
    </symbol>
    <symbol id="icon-Instagram" viewBox="0 0 32 32">
      <path d="M5.75 2.9v24.833H2V2.9h3.75zm13.834 25.167c-2.244 0-4.217-.516-5.917-1.55-1.689-1.033-3.011-2.5-3.967-4.4-.944-1.911-1.417-4.172-1.417-6.783 0-2.644.478-4.917 1.433-6.817.967-1.911 2.289-3.378 3.967-4.4 1.678-1.033 3.589-1.55 5.733-1.55 1.333 0 2.578.2 3.733.6a9.73 9.73 0 0 1 3.1 1.683 9.502 9.502 0 0 1 2.25 2.6 9.434 9.434 0 0 1 1.217 3.3h-3.833a7.576 7.576 0 0 0-.933-1.983 6.003 6.003 0 0 0-1.4-1.5 5.724 5.724 0 0 0-1.85-.95c-.678-.222-1.433-.333-2.267-.333-1.4 0-2.661.361-3.783 1.083-1.122.711-2.011 1.761-2.667 3.15S12 13.306 12 15.317c0 2.011.328 3.711.983 5.1s1.556 2.444 2.7 3.167c1.144.711 2.444 1.067 3.9 1.067 1.344 0 2.517-.272 3.517-.817 1-.556 1.778-1.333 2.333-2.333s.833-2.183.833-3.55l.983.183h-7.1v-3.1h9.767v2.833c0 2.089-.445 3.894-1.333 5.417a9.054 9.054 0 0 1-3.667 3.533c-1.556.833-3.333 1.25-5.333 1.25z"/>
    </symbol>
    <symbol id="icon-GitHub" viewBox="0 0 32 32">
      <path d="M8.523 24.227c-1.53 0-2.875-.352-4.034-1.057-1.152-.705-2.053-1.705-2.705-3-.644-1.303-.966-2.845-.966-4.625 0-1.803.326-3.352.977-4.648.659-1.303 1.561-2.303 2.705-3C5.644 7.192 6.947 6.84 8.409 6.84c.909 0 1.758.136 2.545.409a6.64 6.64 0 0 1 3.648 2.921 6.42 6.42 0 0 1 .83 2.25h-2.614a5.174 5.174 0 0 0-.636-1.352 4.09 4.09 0 0 0-.955-1.023 3.908 3.908 0 0 0-1.261-.648 4.926 4.926 0 0 0-1.545-.227c-.955 0-1.814.246-2.58.739-.765.485-1.371 1.201-1.818 2.148s-.67 2.106-.67 3.477.223 2.53.67 3.477 1.061 1.667 1.841 2.159c.78.485 1.667.727 2.659.727.917 0 1.716-.186 2.398-.557.682-.379 1.212-.909 1.591-1.591s.568-1.489.568-2.42l.67.125H8.909V15.34h6.659v1.932c0 1.424-.303 2.655-.909 3.693a6.17 6.17 0 0 1-2.5 2.409c-1.061.568-2.273.852-3.636.852zm8.83-.227V7.068h2.557v7.364h8.432V7.068h2.557V24h-2.557v-7.375H19.91V24h-2.557z"/>
    </symbol>
    <symbol id="icon-YouTube" viewBox="0 0 32 32">
      <path d="M.821 7.405h3.036L8.5 15.476h.19l4.619-8.071h3.06L9.928 18.179v6.964H7.249v-6.964L.82 7.405zm16.048 2.297V7.404h13.738v2.298h-5.524v15.44h-2.667V9.702h-5.548z"/>
    </symbol>
    <symbol id="icon-Facebook" viewBox="0 0 32 32">
      <path d="M1.667 26.667V5.973h12.847v2.681H4.792v6.708h8.792v2.667H4.792v8.639H1.667zm14.903 0V5.973h7.597c1.463 0 2.676.241 3.639.722s1.681 1.134 2.153 1.958c.481.815.722 1.732.722 2.75 0 .861-.162 1.588-.486 2.181-.315.593-.736 1.065-1.264 1.417s-1.111.611-1.75.778v.194c.694.037 1.37.259 2.028.667s1.199.986 1.625 1.736c.435.741.653 1.648.653 2.722 0 1.056-.25 2.005-.75 2.847-.491.833-1.25 1.495-2.278 1.986s-2.347.736-3.958.736H16.57zM19.695 24h4.5c1.5 0 2.574-.292 3.222-.875s.972-1.31.972-2.181c0-.657-.167-1.255-.5-1.792-.324-.546-.792-.982-1.403-1.306s-1.333-.486-2.167-.486h-4.625v6.639zm0-9.069h4.194c.694 0 1.324-.134 1.889-.403s1.009-.648 1.333-1.139c.333-.5.5-1.079.5-1.736 0-.852-.301-1.565-.903-2.139-.593-.583-1.505-.875-2.736-.875h-4.278v6.292z"/>
    </symbol>

    <symbol id="icon-arrow-up" viewBox="0 0 32 32">
      <path stroke-width="3.2" d="m24 20-8-8-8 8"/>
    </symbol>
    <symbol id="icon-arrow-down" viewBox="0 0 32 32">
      <path stroke-width="3.2" d="m24 12-8 8-8-8"/>
    </symbol>
    <symbol id="icon-x1" viewBox="0 0 32 32">
      <path stroke-linecap="round" stroke-linejoin="round" stroke-width="2.667" d="M24 8 8 24M8 8l16 16"/>
    </symbol>

    <symbol id="icon-arrow-left" viewBox="0 0 32 32">
<path stroke-linejoin="round" stroke-linecap="round" stroke-miterlimit="4" stroke-width="2" d="M26.666 16h-21.333"></path>
<path stroke-linejoin="round" stroke-linecap="round" stroke-miterlimit="4" stroke-width="2" d="M13.334 24l-8-8 8-8"></path>
</symbol>
<symbol id="icon-arrow-right" viewBox="0 0 32 32">
<path stroke-linejoin="round" stroke-linecap="round" stroke-miterlimit="4" stroke-width="2" d="M5.333 16h21.333"></path>
<path stroke-linejoin="round" stroke-linecap="round" stroke-miterlimit="4" stroke-width="2" d="M18.666 8l8 8-8 8"></path>
</symbol>
<symbol id="icon-up" viewBox="0 0 32 32">
<path stroke-linejoin="miter" stroke-linecap="butt" stroke-miterlimit="4" stroke-width="3.2" d="M24 20l-8-8-8 8"></path>
</symbol>
<symbol id="icon-down" viewBox="0 0 32 32">
<path stroke-linejoin="miter" stroke-linecap="butt" stroke-miterlimit="4" stroke-width="3.2" d="M24 12l-8 8-8-8"></path>
</symbol>



<symbol id="icon-close" viewBox="0 0 32 32">
 <path stroke-linejoin="round" stroke-linecap="round" stroke-miterlimit="4" stroke-width="3"
                d="M24 8l-16 16"></path>
            <path stroke-linejoin="round" stroke-linecap="round" stroke-miterlimit="4" stroke-width="3" d="M8 8l16 16">
            </path>
</symbol>

<symbol id="icon-jefferson" viewBox="0 0 141 32">
<path d="M133.416 15.158l0.234-4.936-4.313 2.685-1.337-2.219 4.58-2.251-4.58-2.251 1.337-2.251 4.313 2.685-0.234-4.936h2.641l-0.234 4.936 4.313-2.685 1.337 2.251-4.58 2.251 4.58 2.251-1.337 2.219-4.313-2.685 0.234 4.936h-2.641z"></path>
<path d="M112.987 14.412v10.851h-3.513v-18.297h3.415v3.011h0.244c0.412-0.993 1.057-1.778 1.936-2.357 0.878-0.589 2.006-0.884 3.383-0.884 1.236 0 2.315 0.262 3.236 0.786 0.933 0.513 1.654 1.282 2.163 2.308 0.52 1.026 0.781 2.297 0.781 3.813v11.62h-3.513v-11.194c0-1.32-0.347-2.357-1.041-3.11-0.694-0.764-1.637-1.146-2.83-1.146-0.813 0-1.545 0.185-2.196 0.556-0.64 0.36-1.144 0.878-1.512 1.555s-0.553 1.506-0.553 2.488z"></path>
<path d="M99.36 25.263c-1.69 0-3.17-0.385-4.441-1.155-1.26-0.77-2.239-1.85-2.939-3.24-0.689-1.39-1.033-3.005-1.033-4.844 0-1.861 0.344-3.486 1.033-4.876 0.7-1.401 1.679-2.486 2.939-3.256 1.27-0.77 2.75-1.155 4.441-1.155 1.701 0 3.181 0.385 4.441 1.155s2.239 1.855 2.939 3.256c0.7 1.39 1.050 3.016 1.050 4.876 0 1.839-0.35 3.454-1.050 4.844s-1.679 2.47-2.939 3.24c-1.259 0.77-2.74 1.155-4.441 1.155zM99.36 22.328c1.109 0 2.024-0.289 2.745-0.866s1.254-1.342 1.599-2.294c0.355-0.963 0.533-2.010 0.533-3.144 0-1.155-0.178-2.214-0.533-3.176-0.344-0.962-0.877-1.732-1.599-2.31s-1.636-0.866-2.745-0.866c-1.098 0-2.008 0.289-2.729 0.866-0.711 0.577-1.243 1.347-1.599 2.31s-0.533 2.021-0.533 3.176c0 1.134 0.178 2.181 0.533 3.144 0.355 0.952 0.888 1.716 1.599 2.294 0.721 0.577 1.631 0.866 2.729 0.866z"></path>
<path d="M88.896 11.356l-3.289 0.545c-0.212-0.599-0.606-1.15-1.185-1.652-0.568-0.503-1.419-0.754-2.554-0.754-1.024 0-1.881 0.225-2.571 0.674-0.679 0.438-1.018 1-1.018 1.684 0 0.599 0.228 1.085 0.684 1.46 0.467 0.374 1.207 0.674 2.22 0.898l2.988 0.642c1.703 0.374 2.977 0.962 3.823 1.764s1.269 1.829 1.269 3.080c0 1.080-0.323 2.042-0.968 2.887-0.645 0.834-1.541 1.492-2.688 1.973-1.146 0.47-2.471 0.706-3.973 0.706-2.092 0-3.795-0.433-5.108-1.299s-2.12-2.085-2.421-3.657l3.489-0.513c0.222 0.877 0.673 1.54 1.352 1.989 0.69 0.449 1.58 0.674 2.671 0.674 1.18 0 2.126-0.241 2.838-0.722 0.723-0.481 1.085-1.064 1.085-1.748 0-1.133-0.879-1.898-2.637-2.294l-3.155-0.674c-1.747-0.385-3.038-0.989-3.873-1.813-0.824-0.834-1.235-1.882-1.235-3.144 0-1.059 0.306-1.989 0.918-2.791 0.623-0.802 1.475-1.422 2.554-1.861 1.091-0.449 2.331-0.674 3.723-0.674 2.026 0 3.611 0.422 4.758 1.267 1.157 0.845 1.925 1.962 2.304 3.352z"></path>
<path d="M64 25.263v-18.265h3.538v2.924h0.203c0.35-0.98 0.959-1.754 1.828-2.32 0.88-0.577 1.873-0.866 2.979-0.866 0.226 0 0.491 0.011 0.795 0.033 0.316 0.011 0.57 0.027 0.762 0.049v3.398c-0.147-0.044-0.412-0.087-0.796-0.131-0.372-0.044-0.75-0.065-1.134-0.065-0.869 0-1.648 0.18-2.336 0.539-0.677 0.349-1.213 0.833-1.608 1.454-0.384 0.61-0.576 1.318-0.576 2.124v11.126h-3.656z"></path>
<path d="M54.344 25.263c-1.82 0-3.395-0.38-4.726-1.139s-2.358-1.829-3.079-3.208c-0.71-1.39-1.065-3.010-1.065-4.86 0-1.839 0.349-3.459 1.048-4.86 0.71-1.401 1.703-2.492 2.979-3.272 1.287-0.791 2.796-1.187 4.527-1.187 1.054 0 2.075 0.166 3.062 0.497s1.875 0.855 2.663 1.572c0.788 0.716 1.409 1.647 1.864 2.791 0.466 1.144 0.699 2.524 0.699 4.138v1.251h-14.795v-2.615h12.931l-1.681 0.866c0-1.101-0.178-2.075-0.533-2.919s-0.888-1.502-1.598-1.973c-0.699-0.481-1.57-0.722-2.613-0.722s-1.936 0.241-2.68 0.722c-0.732 0.481-1.292 1.117-1.681 1.909s-0.582 1.657-0.582 2.598v1.78c0 1.23 0.222 2.272 0.666 3.128s1.060 1.508 1.847 1.957c0.799 0.449 1.725 0.674 2.779 0.674 0.688 0 1.309-0.096 1.864-0.289 0.566-0.192 1.054-0.481 1.464-0.866s0.721-0.861 0.932-1.428l3.428 0.626c-0.277 0.963-0.766 1.807-1.465 2.534s-1.581 1.294-2.646 1.7c-1.054 0.396-2.258 0.594-3.611 0.594z"></path>
<path d="M46.213 7.158v2.834h-10.844v-2.834h10.844zM38.324 25.263v-20.211c0-1.123 0.264-2.057 0.791-2.802 0.538-0.756 1.237-1.317 2.097-1.684 0.871-0.378 1.804-0.567 2.801-0.567 0.767 0 1.421 0.059 1.959 0.178s0.934 0.221 1.186 0.308l-0.894 2.85c-0.172-0.054-0.395-0.113-0.67-0.178-0.263-0.065-0.596-0.097-0.997-0.097-0.905 0-1.558 0.216-1.959 0.648-0.401 0.421-0.601 1.036-0.601 1.846v19.709h-3.712z"></path>
<path d="M36.107 7.158v2.834h-10.844v-2.834h10.844zM28.219 25.263v-20.211c0-1.123 0.264-2.057 0.791-2.802 0.538-0.756 1.237-1.317 2.097-1.684 0.871-0.378 1.804-0.567 2.801-0.567 0.767 0 1.421 0.059 1.959 0.178s0.934 0.221 1.186 0.308l-0.894 2.85c-0.172-0.054-0.395-0.113-0.67-0.178-0.263-0.065-0.596-0.097-0.997-0.097-0.905 0-1.558 0.216-1.959 0.648-0.401 0.421-0.601 1.036-0.601 1.846v19.709h-3.712z"></path>
<path d="M17.291 25.263c-1.82 0-3.395-0.38-4.726-1.139s-2.358-1.829-3.079-3.208c-0.71-1.39-1.065-3.010-1.065-4.86 0-1.839 0.35-3.459 1.048-4.86 0.71-1.401 1.703-2.492 2.979-3.272 1.287-0.791 2.796-1.187 4.527-1.187 1.054 0 2.075 0.166 3.062 0.497s1.875 0.855 2.663 1.572c0.788 0.716 1.409 1.647 1.864 2.791 0.466 1.144 0.699 2.524 0.699 4.138v1.251h-14.795v-2.615h12.931l-1.681 0.866c0-1.101-0.178-2.075-0.533-2.919s-0.888-1.502-1.598-1.973c-0.699-0.481-1.57-0.722-2.613-0.722s-1.936 0.241-2.68 0.722c-0.732 0.481-1.293 1.117-1.681 1.909s-0.582 1.657-0.582 2.598v1.78c0 1.23 0.222 2.272 0.666 3.128s1.060 1.508 1.847 1.957c0.799 0.449 1.725 0.674 2.779 0.674 0.688 0 1.309-0.096 1.864-0.289 0.566-0.192 1.054-0.481 1.464-0.866s0.721-0.861 0.932-1.428l3.428 0.626c-0.277 0.963-0.766 1.807-1.465 2.534s-1.581 1.294-2.646 1.7c-1.054 0.396-2.258 0.594-3.611 0.594z"></path>
<path d="M2.878 7.012h3.416v19.376c0.011 1.215-0.2 2.24-0.633 3.075s-1.065 1.464-1.898 1.887c-0.833 0.434-1.856 0.651-3.068 0.651h-0.696v-3.042h0.553c0.822 0 1.413-0.222 1.771-0.667s0.543-1.085 0.554-1.92v-19.36zM4.57 4.214c-0.601 0-1.112-0.206-1.534-0.618s-0.633-0.906-0.633-1.48c0-0.586 0.211-1.085 0.633-1.497s0.933-0.618 1.534-0.618c0.59 0 1.096 0.206 1.518 0.618 0.432 0.412 0.648 0.911 0.648 1.497 0 0.575-0.216 1.068-0.648 1.48-0.422 0.412-0.928 0.618-1.518 0.618z"></path>
</symbol>
<symbol id="icon-Serviceshourglass" viewBox="0 0 32 32">
<path fill="#ed3b44" style="fill: var(--color1, #ed3b44)" d="M6.667 0h18.667c3.682 0 6.667 2.985 6.667 6.667v18.667c0 3.682-2.985 6.667-6.667 6.667h-18.667c-3.682 0-6.667-2.985-6.667-6.667v-18.667c0-3.682 2.985-6.667 6.667-6.667z"></path>
<path fill="none" stroke="#fafafa" style="stroke: var(--color2, #fafafa)" stroke-linejoin="round" stroke-linecap="round" stroke-miterlimit="4" stroke-width="1.3333" d="M20.108 9.333h-8.217c-0.308 0-0.558 0.25-0.558 0.558 0 1.777 0.706 3.481 1.962 4.737l0.813 0.813c0.081 0.081 0.121 0.121 0.15 0.16 0.176 0.236 0.176 0.561 0 0.797-0.029 0.039-0.069 0.079-0.15 0.16l-0.813 0.813c-1.256 1.256-1.962 2.96-1.962 4.737 0 0.308 0.25 0.558 0.558 0.558h8.217c0.308 0 0.558-0.25 0.558-0.558 0-1.777-0.706-3.481-1.962-4.737l-0.813-0.813c-0.081-0.081-0.121-0.121-0.15-0.16-0.176-0.236-0.176-0.561 0-0.797 0.029-0.039 0.069-0.079 0.15-0.16l0.813-0.813c1.256-1.256 1.962-2.96 1.962-4.737 0-0.308-0.25-0.558-0.558-0.558z"></path>
</symbol>
<symbol id="icon-Servicesbrush" viewBox="0 0 32 32">
<path fill="#ed3b44" style="fill: var(--color1, #ed3b44)" d="M6.667 0h18.667c3.682 0 6.667 2.985 6.667 6.667v18.667c0 3.682-2.985 6.667-6.667 6.667h-18.667c-3.682 0-6.667-2.985-6.667-6.667v-18.667c0-3.682 2.985-6.667 6.667-6.667z"></path>
<path fill="none" stroke="#fafafa" style="stroke: var(--color2, #fafafa)" stroke-linejoin="round" stroke-linecap="round" stroke-miterlimit="4" stroke-width="1.3333" d="M16.519 18l-2.519-2.519"></path>
<path fill="none" stroke="#fafafa" style="stroke: var(--color2, #fafafa)" stroke-linejoin="round" stroke-linecap="round" stroke-miterlimit="4" stroke-width="1.3333" d="M9.333 22.667c1.333 0 3.072 0.228 3.983-0.683s0.911-2.389 0-3.3c-0.911-0.911-2.389-0.911-3.3 0s0 2.65-0.683 3.983z"></path>
<path fill="none" stroke="#fafafa" style="stroke: var(--color2, #fafafa)" stroke-linejoin="round" stroke-linecap="round" stroke-miterlimit="4" stroke-width="1.3333" d="M13.333 18.667c-0.328-0.328-0.491-0.491-0.584-0.663-0.222-0.411-0.213-0.909 0.025-1.311 0.099-0.168 0.269-0.325 0.609-0.64l6.579-6.091c0.579-0.536 1.479-0.519 2.038 0.039s0.576 1.458 0.039 2.038l-6.091 6.579c-0.315 0.34-0.472 0.51-0.64 0.609-0.403 0.238-0.9 0.247-1.311 0.025-0.172-0.093-0.335-0.256-0.663-0.584z"></path>
</symbol>
<symbol id="icon-Servicesmessage" viewBox="0 0 32 32">
<path fill="#ed3b44" style="fill: var(--color1, #ed3b44)" d="M6.667 0h18.667c3.682 0 6.667 2.985 6.667 6.667v18.667c0 3.682-2.985 6.667-6.667 6.667h-18.667c-3.682 0-6.667-2.985-6.667-6.667v-18.667c0-3.682 2.985-6.667 6.667-6.667z"></path>
<path fill="none" stroke="#fafafa" style="stroke: var(--color2, #fafafa)" stroke-linejoin="round" stroke-linecap="round" stroke-miterlimit="4" stroke-width="1.3333" d="M12.063 15.486c-0.041-0.267-0.063-0.541-0.063-0.819 0-2.946 2.403-5.333 5.368-5.333s5.368 2.388 5.368 5.333c0 0.665-0.123 1.302-0.347 1.89-0.047 0.122-0.070 0.183-0.080 0.231s-0.015 0.080-0.016 0.129c-0.001 0.049 0.005 0.102 0.019 0.21l0.268 2.18c0.029 0.236 0.044 0.354 0.004 0.44-0.034 0.075-0.095 0.135-0.171 0.168-0.087 0.037-0.204 0.020-0.44-0.014l-2.123-0.311c-0.111-0.016-0.166-0.024-0.217-0.024s-0.084 0.004-0.133 0.014c-0.049 0.010-0.113 0.034-0.239 0.081-0.589 0.221-1.227 0.341-1.894 0.341-0.279 0-0.553-0.021-0.82-0.062M13.088 22.667c1.977 0 3.579-1.642 3.579-3.667s-1.602-3.667-3.579-3.667c-1.977 0-3.579 1.642-3.579 3.667 0 0.407 0.065 0.799 0.184 1.164 0.051 0.155 0.076 0.232 0.084 0.285 0.009 0.055 0.010 0.086 0.007 0.142-0.003 0.053-0.016 0.114-0.043 0.234l-0.408 1.841 1.997-0.273c0.109-0.015 0.163-0.022 0.211-0.022 0.050 0 0.077 0.003 0.126 0.013 0.047 0.009 0.116 0.034 0.255 0.083 0.366 0.129 0.758 0.199 1.166 0.199z"></path>
</symbol>
<symbol id="icon-Servicesuser" viewBox="0 0 32 32">
<path fill="#ed3b44" style="fill: var(--color1, #ed3b44)" d="M6.667 0h18.667c3.682 0 6.667 2.985 6.667 6.667v18.667c0 3.682-2.985 6.667-6.667 6.667h-18.667c-3.682 0-6.667-2.985-6.667-6.667v-18.667c0-3.682 2.985-6.667 6.667-6.667z"></path>
<path fill="none" stroke="#fafafa" style="stroke: var(--color2, #fafafa)" stroke-linejoin="round" stroke-linecap="round" stroke-miterlimit="4" stroke-width="1.3333" d="M21.333 22c0-0.93 0-1.396-0.115-1.774-0.259-0.852-0.926-1.519-1.778-1.778-0.379-0.115-0.844-0.115-1.774-0.115h-3.333c-0.93 0-1.396 0-1.774 0.115-0.852 0.259-1.519 0.926-1.778 1.778-0.115 0.379-0.115 0.844-0.115 1.774"></path>
<path fill="none" stroke="#fafafa" style="stroke: var(--color2, #fafafa)" stroke-linejoin="round" stroke-linecap="round" stroke-miterlimit="4" stroke-width="1.3333" d="M16 16c1.657 0 3-1.343 3-3s-1.343-3-3-3c-1.657 0-3 1.343-3 3s1.343 3 3 3z"></path>
</symbol>

<symbol id="arrowDown" viewBox="0 0 48 32">
<path stroke-linejoin="miter" stroke-linecap="butt" stroke-miterlimit="4" stroke-width="8" d="M4 6l20 20 20-20"></path>
</symbol>
<symbol id="arrow-left" viewBox="0 0 32 32">
<path stroke-linejoin="round" stroke-linecap="round" stroke-miterlimit="4" stroke-width="2" d="M26.667 16h-21.333"></path>
<path stroke-linejoin="round" stroke-linecap="round" stroke-miterlimit="4" stroke-width="2" d="M13.333 24l-8-8 8-8"></path>
</symbol>
<symbol id="arrow-right" viewBox="0 0 32 32">
<path stroke-linejoin="round" stroke-linecap="round" stroke-miterlimit="4" stroke-width="2" d="M5.333 16h21.333"></path>
<path stroke-linejoin="round" stroke-linecap="round" stroke-miterlimit="4" stroke-width="2" d="M18.667 8l8 8-8 8"></path>
</symbol>
<symbol id="arrow-up" viewBox="0 0 32 32">
<path stroke-linejoin="miter" stroke-linecap="butt" stroke-miterlimit="4" stroke-width="0.7619" d="M16 31.619c8.626 0 15.619-6.993 15.619-15.619s-6.993-15.619-15.619-15.619c-8.626 0-15.619 6.993-15.619 15.619s6.993 15.619 15.619 15.619z"></path>
<path stroke-linejoin="miter" stroke-linecap="butt" stroke-miterlimit="4" stroke-width="1.5238" d="M19.81 17.905l-3.81-3.81-3.81 3.81"></path>
</symbol>
<symbol id="favicon" viewBox="0 0 32 32">
<path fill="#1c1d20" style="fill: var(--color1, #1c1d20)" d="M6.667 0h18.667c3.682 0 6.667 2.985 6.667 6.667v18.667c0 3.682-2.985 6.667-6.667 6.667h-18.667c-3.682 0-6.667-2.985-6.667-6.667v-18.667c0-3.682 2.985-6.667 6.667-6.667z"></path>
<path fill="#fafafa" style="fill: var(--color2, #fafafa)" d="M24.48 15.368l0.083-1.748-1.527 0.951-0.474-0.786 1.622-0.797-1.622-0.797 0.474-0.797 1.527 0.951-0.083-1.748h0.935l-0.083 1.748 1.528-0.951 0.474 0.797-1.622 0.797 1.622 0.797-0.474 0.786-1.528-0.951 0.083 1.748h-0.935z"></path>
<path fill="#fafafa" style="fill: var(--color2, #fafafa)" d="M21.034 12.535v1.004h-3.841v-1.004h3.841zM18.24 18.947v-7.158c0-0.398 0.093-0.728 0.28-0.992 0.191-0.268 0.438-0.467 0.743-0.597 0.308-0.134 0.639-0.201 0.992-0.201 0.272 0 0.503 0.021 0.694 0.063s0.331 0.078 0.42 0.109l-0.316 1.009c-0.061-0.019-0.14-0.040-0.237-0.063-0.093-0.023-0.211-0.034-0.353-0.034-0.321 0-0.552 0.076-0.694 0.229-0.142 0.149-0.213 0.367-0.213 0.654v6.98h-1.315z"></path>
<path fill="#fafafa" style="fill: var(--color2, #fafafa)" d="M17.455 12.535v1.004h-3.841v-1.004h3.841zM14.661 18.947v-7.158c0-0.398 0.093-0.728 0.28-0.992 0.191-0.268 0.438-0.467 0.743-0.597 0.308-0.134 0.639-0.201 0.992-0.201 0.272 0 0.503 0.021 0.694 0.063s0.331 0.078 0.42 0.109l-0.317 1.009c-0.061-0.019-0.14-0.040-0.237-0.063-0.093-0.023-0.211-0.034-0.353-0.034-0.321 0-0.552 0.076-0.694 0.229-0.142 0.149-0.213 0.367-0.213 0.654v6.98h-1.315z"></path>
<path fill="#fafafa" style="fill: var(--color2, #fafafa)" d="M10.791 18.947c-0.644 0-1.202-0.134-1.674-0.403s-0.835-0.648-1.090-1.136c-0.252-0.492-0.377-1.066-0.377-1.721 0-0.651 0.124-1.225 0.371-1.721 0.252-0.496 0.603-0.882 1.055-1.159 0.456-0.28 0.99-0.42 1.603-0.42 0.373 0 0.735 0.059 1.085 0.176s0.664 0.303 0.943 0.557c0.279 0.254 0.499 0.583 0.66 0.988 0.165 0.405 0.248 0.894 0.248 1.466v0.443h-5.24v-0.926h4.58l-0.595 0.307c0-0.39-0.063-0.735-0.189-1.034s-0.314-0.532-0.566-0.699c-0.248-0.17-0.556-0.256-0.925-0.256s-0.686 0.085-0.949 0.256c-0.259 0.17-0.458 0.396-0.595 0.676s-0.206 0.587-0.206 0.92v0.631c0 0.436 0.079 0.805 0.236 1.108s0.375 0.534 0.654 0.693c0.283 0.159 0.611 0.239 0.984 0.239 0.244 0 0.464-0.034 0.66-0.102 0.2-0.068 0.373-0.17 0.519-0.307s0.255-0.305 0.33-0.506l1.214 0.222c-0.098 0.341-0.271 0.64-0.519 0.898s-0.56 0.458-0.937 0.602c-0.373 0.14-0.8 0.21-1.279 0.21z"></path>
<path fill="#fafafa" style="fill: var(--color2, #fafafa)" d="M5.686 12.483h1.21v6.862c0.004 0.43-0.071 0.793-0.224 1.089s-0.377 0.519-0.672 0.668c-0.295 0.154-0.657 0.23-1.087 0.23h-0.246v-1.077h0.196c0.291 0 0.5-0.079 0.627-0.236s0.192-0.384 0.196-0.68v-6.856zM6.285 11.492c-0.213 0-0.394-0.073-0.543-0.219s-0.224-0.321-0.224-0.524c0-0.207 0.075-0.384 0.224-0.53s0.33-0.219 0.543-0.219c0.209 0 0.388 0.073 0.538 0.219 0.153 0.146 0.23 0.323 0.23 0.53 0 0.204-0.077 0.378-0.23 0.524-0.149 0.146-0.329 0.219-0.538 0.219z"></path>
</symbol>
<symbol id="favicon-2" viewBox="0 0 32 32">
<path fill="#1c1d20" style="fill: var(--color1, #1c1d20)" d="M6.667 0h18.667c3.682 0 6.667 2.985 6.667 6.667v18.667c0 3.682-2.985 6.667-6.667 6.667h-18.667c-3.682 0-6.667-2.985-6.667-6.667v-18.667c0-3.682 2.985-6.667 6.667-6.667z"></path>
<path fill="#fafafa" style="fill: var(--color2, #fafafa)" d="M12.432 20.797c-0.551 0-1.046-0.098-1.484-0.293-0.438-0.2-0.786-0.49-1.042-0.872s-0.384-0.846-0.384-1.393v-0.189h1.452v0.189c0 0.265 0.061 0.497 0.182 0.697 0.126 0.2 0.297 0.354 0.514 0.462 0.221 0.104 0.475 0.156 0.762 0.156 0.308 0 0.571-0.065 0.788-0.195s0.382-0.321 0.495-0.573c0.113-0.256 0.169-0.569 0.169-0.937v-6.882h1.452v6.882c0 0.621-0.119 1.152-0.358 1.595-0.234 0.438-0.569 0.775-1.003 1.009-0.434 0.23-0.948 0.345-1.543 0.345zM18.533 16.422l0.091-1.999-1.68 1.087-0.521-0.898 1.784-0.911-1.784-0.911 0.521-0.911 1.68 1.087-0.091-1.999h1.029l-0.091 1.999 1.68-1.087 0.521 0.911-1.784 0.911 1.784 0.911-0.521 0.898-1.68-1.087 0.091 1.999h-1.029z"></path>
</symbol>
<symbol id="brush" viewBox="0 0 32 32">
<path stroke-linejoin="round" stroke-linecap="round" stroke-miterlimit="4" stroke-width="2.6667" d="M17.037 20l-5.037-5.037"></path>
<path stroke-linejoin="round" stroke-linecap="round" stroke-miterlimit="4" stroke-width="2.6667" d="M2.667 29.333c2.667 0 6.144 0.456 7.966-1.367s1.822-4.777 0-6.6c-1.822-1.823-4.777-1.823-6.6 0s0 5.3-1.367 7.966z"></path>
<path stroke-linejoin="round" stroke-linecap="round" stroke-miterlimit="4" stroke-width="2.6667" d="M10.667 21.333c-0.655-0.655-0.983-0.983-1.168-1.326-0.444-0.823-0.425-1.818 0.050-2.623 0.198-0.336 0.538-0.651 1.218-1.28l13.157-12.183c1.159-1.073 2.959-1.038 4.075 0.078s1.151 2.917 0.078 4.075l-12.183 13.157c-0.63 0.68-0.944 1.020-1.28 1.218-0.805 0.475-1.8 0.495-2.623 0.051-0.343-0.185-0.671-0.513-1.326-1.168z"></path>
</symbol>
<symbol id="hourglass" viewBox="0 0 32 32">
<path stroke-linejoin="round" stroke-linecap="round" stroke-miterlimit="4" stroke-width="2.6667" d="M24.217 2.667h-16.434c-0.617 0-1.117 0.5-1.117 1.117 0 3.554 1.412 6.962 3.925 9.475l1.626 1.626c0.161 0.161 0.242 0.242 0.3 0.32 0.352 0.473 0.352 1.121 0 1.594-0.058 0.077-0.139 0.158-0.3 0.32l-1.626 1.626c-2.513 2.513-3.925 5.921-3.925 9.475 0 0.617 0.5 1.117 1.117 1.117h16.434c0.617 0 1.117-0.5 1.117-1.117 0-3.554-1.412-6.962-3.925-9.475l-1.626-1.626c-0.161-0.161-0.242-0.242-0.3-0.32-0.353-0.473-0.353-1.121 0-1.594 0.058-0.077 0.139-0.158 0.3-0.32l1.626-1.626c2.513-2.513 3.925-5.921 3.925-9.475 0-0.617-0.5-1.117-1.117-1.117z"></path>
</symbol>
<symbol id="message" viewBox="0 0 32 32">
<path stroke-linejoin="round" stroke-linecap="round" stroke-miterlimit="4" stroke-width="2.6667" d="M8.126 14.972c-0.083-0.534-0.126-1.081-0.126-1.638 0-5.891 4.807-10.667 10.737-10.667s10.737 4.776 10.737 10.667c0 1.331-0.245 2.605-0.693 3.779-0.093 0.244-0.14 0.366-0.161 0.461s-0.029 0.161-0.031 0.257c-0.002 0.097 0.011 0.205 0.037 0.42l0.537 4.36c0.058 0.472 0.087 0.708 0.009 0.88-0.069 0.15-0.191 0.27-0.343 0.335-0.173 0.075-0.409 0.040-0.879-0.029l-4.247-0.623c-0.222-0.033-0.333-0.049-0.434-0.048-0.1 0.001-0.169 0.008-0.267 0.028s-0.225 0.068-0.477 0.163c-1.178 0.441-2.454 0.683-3.787 0.683-0.558 0-1.105-0.042-1.64-0.124M10.175 29.333c3.953 0 7.158-3.283 7.158-7.333s-3.205-7.333-7.158-7.333c-3.953 0-7.158 3.283-7.158 7.333 0 0.814 0.13 1.597 0.369 2.329 0.101 0.309 0.152 0.464 0.168 0.57 0.017 0.11 0.020 0.172 0.014 0.284-0.006 0.107-0.033 0.227-0.086 0.469l-0.815 3.682 3.993-0.545c0.218-0.030 0.327-0.045 0.422-0.044 0.1 0.001 0.153 0.006 0.252 0.026 0.093 0.019 0.232 0.067 0.51 0.165 0.731 0.258 1.516 0.398 2.332 0.398z"></path>
</symbol>
<symbol id="user" viewBox="0 0 32 32">
<path stroke-linejoin="round" stroke-linecap="round" stroke-miterlimit="4" stroke-width="2.6667" d="M26.667 28c0-1.861 0-2.791-0.23-3.548-0.517-1.705-1.851-3.039-3.556-3.556-0.757-0.23-1.687-0.23-3.548-0.23h-6.667c-1.861 0-2.791 0-3.548 0.23-1.705 0.517-3.038 1.851-3.556 3.556-0.23 0.757-0.23 1.687-0.23 3.548"></path>
<path stroke-linejoin="round" stroke-linecap="round" stroke-miterlimit="4" stroke-width="2.6667" d="M16 16c3.314 0 6-2.686 6-6s-2.686-6-6-6c-3.314 0-6 2.686-6 6s2.686 6 6 6z"></path>
</symbol>
<symbol id="close" viewBox="0 0 32 32">
<path stroke-linejoin="round" stroke-linecap="round" stroke-miterlimit="4" stroke-width="2.6667" d="M24 8l-16 16"></path>
<path stroke-linejoin="round" stroke-linecap="round" stroke-miterlimit="4" stroke-width="2.6667" d="M8 8l16 16"></path>
</symbol>
  </defs>
</svg>
